<svg xmlns="http://www.w3.org/2000/svg" width="1337.21" height="516" aria-hidden="true" class="svg-inline--fa fa-clock fa-w-16" data-icon="clock" data-prefix="far"><defs><path id="a" d="M530.71 5.96h488.97v506H530.71z"/><path id="b" d="M530.71 5.96h488.97v506H530.71z"/></defs><path fill="#bc9542" d="M258 10C121 10 10 121 10 258s111 248 248 248 248-111 248-248S395 10 258 10Zm0 448c-110.5 0-200-89.5-200-200S147.5 58 258 58s200 89.5 200 200-89.5 200-200 200z"/><path fill="#237b83" d="m319.8 353.6-84.9-61.7c-3.1-2.3-4.9-5.9-4.9-9.7V118c0-6.6 5.4-12 12-12h32c6.6 0 12 5.4 12 12v141.7l66.8 48.6a12 12 0 0 1 2.6 16.8L336.6 351c-3.9 5.3-11.4 6.5-16.8 2.6z"/><g fill="#bc9542" aria-label="League" font-family="Roboto" font-size="66.67" font-weight="900" style="line-height:1.25;-inkscape-font-specification:'Roboto, Heavy';font-variant-ligatures:normal;font-variant-caps:normal;font-variant-numeric:normal;font-variant-east-asian:normal;white-space:pre;shape-inside:url(#a)" transform="matrix(3.6521 0 0 3.6521 -1410.6 5.18)"><path d="M545.71 55.5h19.9v8.8h-31.32V16.9h11.42zM587.02 64.95q-8.1 0-13.12-4.82-5-4.85-5-12.6v-.91q0-5.4 1.98-9.54 2.01-4.13 5.86-6.38 3.84-2.28 9.11-2.28 7.42 0 11.72 4.63 4.3 4.59 4.3 12.82v4.27h-21.81q.58 2.96 2.57 4.65 1.98 1.7 5.14 1.7 5.2 0 8.14-3.65l5.01 5.92q-2.05 2.83-5.82 4.53-3.75 1.66-8.08 1.66zm-1.23-28.06q-4.82 0-5.73 6.38h11.06v-.85q.07-2.64-1.33-4.07-1.4-1.46-4-1.46zM626.15 64.3q-.59-1.08-1.04-3.16-3.03 3.8-8.47 3.8-4.98 0-8.46-2.99-3.48-3.02-3.48-7.58 0-5.73 4.23-8.66 4.23-2.93 12.3-2.93h3.39v-1.86q0-4.85-4.2-4.85-3.9 0-3.9 3.84h-10.98q0-5.1 4.33-8.3 4.37-3.19 11.1-3.19 6.74 0 10.65 3.3 3.9 3.28 4 9v15.6q.07 4.85 1.5 7.42v.56zm-6.87-7.17q2.05 0 3.39-.87 1.36-.88 1.95-1.99v-5.63h-3.19q-5.73 0-5.73 5.14 0 1.5 1.01 2.44 1 .91 2.57.91zM640.44 46.43q0-5.34 1.76-9.44t5.04-6.32q3.3-2.25 7.65-2.25 5.5 0 8.6 3.71l.39-3.06h9.96v33.9q0 4.65-2.18 8.06-2.15 3.46-6.25 5.28-4.1 1.85-9.5 1.85-3.88 0-7.53-1.46-3.61-1.47-5.53-3.81l4.59-6.45q3.06 3.62 8.07 3.62 7.3 0 7.3-7.49v-1.1q-3.16 3.48-7.98 3.48-6.45 0-10.42-4.92-3.97-4.95-3.97-13.21zm11 .68q0 4.33 1.63 6.87 1.63 2.5 4.56 2.5 3.55 0 5.17-2.37V39.3q-1.6-2.41-5.1-2.41-2.94 0-4.6 2.63-1.66 2.6-1.66 7.59zM701.12 60.49q-3.49 4.46-9.41 4.46-5.8 0-8.79-3.36-2.96-3.38-2.96-9.7V29.07h10.97v22.89q0 4.52 4.4 4.52 3.77 0 5.36-2.7v-24.7h11.04V64.3h-10.29ZM734.8 64.95q-8.1 0-13.11-4.82-5.01-4.85-5.01-12.6v-.91q0-5.4 1.98-9.54 2.02-4.13 5.86-6.38 3.84-2.28 9.12-2.28 7.42 0 11.72 4.63 4.3 4.59 4.3 12.82v4.27h-21.82q.59 2.96 2.57 4.65 1.99 1.7 5.15 1.7 5.2 0 8.14-3.65l5 5.92q-2.04 2.83-5.82 4.53-3.74 1.66-8.07 1.66zm-1.23-28.06q-4.82 0-5.73 6.38h11.07v-.85q.07-2.64-1.33-4.07-1.4-1.46-4-1.46z" style="-inkscape-font-specification:'Roboto, Heavy';font-variant-ligatures:normal;font-variant-caps:normal;font-variant-numeric:normal;font-variant-east-asian:normal"/></g><g fill="#237b83" aria-label="Timer" font-family="Roboto" font-size="66.67" font-weight="900" style="line-height:1.25;-inkscape-font-specification:'Roboto, Heavy';font-variant-ligatures:normal;font-variant-caps:normal;font-variant-numeric:normal;font-variant-east-asian:normal;white-space:pre;shape-inside:url(#b)" transform="matrix(3.6521 0 0 3.6521 -1400.9 217.22)"><path d="M571.5 25.72h-14.23V64.3h-11.43V25.72h-13.96V16.9h39.61zM587.41 64.3h-11V29.07h11zM575.76 20q0-2.35 1.7-3.85 1.68-1.5 4.39-1.5 2.7 0 4.4 1.5 1.68 1.5 1.68 3.84 0 2.35-1.69 3.84-1.7 1.5-4.4 1.5t-4.39-1.5q-1.7-1.5-1.7-3.84zM604.57 29.07l.36 4.14q3.74-4.79 10.05-4.79 6.68 0 9.02 5.31 3.58-5.3 10.35-5.3 10.71 0 11 12.95V64.3h-11V42.06q0-2.7-.9-3.94-.92-1.23-3.33-1.23-3.25 0-4.85 2.9l.03.45V64.3h-11V42.13q0-2.77-.88-4-.88-1.24-3.35-1.24-3.16 0-4.82 2.9v24.5h-10.97V29.08ZM668.66 64.95q-8.1 0-13.12-4.82-5-4.85-5-12.6v-.91q0-5.4 1.98-9.54 2.02-4.13 5.86-6.38 3.84-2.28 9.11-2.28 7.42 0 11.72 4.63 4.3 4.59 4.3 12.82v4.27H661.7q.58 2.96 2.57 4.65 1.98 1.7 5.14 1.7 5.21 0 8.14-3.65l5.01 5.92q-2.05 2.83-5.82 4.53-3.75 1.66-8.08 1.66zm-1.23-28.06q-4.82 0-5.73 6.38h11.06v-.85q.07-2.64-1.33-4.07-1.4-1.46-4-1.46zM709.26 39l-3.62-.26q-5.17 0-6.64 3.26v22.3h-10.97V29.07h10.29l.36 4.53q2.76-5.18 7.71-5.18 1.76 0 3.06.4z" style="-inkscape-font-specification:'Roboto, Heavy';font-variant-ligatures:normal;font-variant-caps:normal;font-variant-numeric:normal;font-variant-east-asian:normal"/></g></svg>